<svg width="358" height="345" viewBox="0 0 358 345" fill="none" xmlns="http://www.w3.org/2000/svg">
<rect width="358" height="345" rx="37" fill="#1E1E1E"/>
<rect x="113" y="81" width="133" height="183" fill="#82CB4E"/>
<path d="M158.061 56.7177C127.718 62.4637 99.3914 81.1131 82.6574 106.214C68.9476 126.88 63 146.839 63 171.94C63 222.344 94.4519 266.095 142.134 282.022C157.255 287.062 167.436 288.474 182.961 287.869C200.904 287.163 213.909 283.937 228.929 276.578C281.248 251.074 306.651 192.203 289.212 136.96C277.014 98.1495 246.671 69.2178 206.65 58.3306C196.267 55.508 169.251 54.6007 158.061 56.7177ZM188.102 84.6413C197.679 92.2019 213.203 114.581 223.284 135.448C233.062 155.509 232.961 154.904 224.594 150.569C209.574 142.908 194.15 143.412 181.348 152.081C178.828 153.694 176.711 155.106 176.509 155.106C176.307 155.106 176.811 152.787 177.517 150.065C179.836 140.993 183.062 110.75 181.65 110.75C180.441 110.75 173.082 136.759 170.864 149.057C169.251 158.029 166.932 180.61 167.436 181.517C168.545 183.231 166.63 182.122 160.279 177.283C153.021 171.84 142.94 166.194 144.251 168.412C144.654 169.118 148.989 174.965 153.827 181.316C163.807 194.723 166.025 198.654 168.243 207.223C172.779 224.663 182.86 249.461 189.009 258.433L192.134 263.07L182.86 262.768C174.493 262.465 173.586 262.264 173.384 260.449C173.182 259.34 172.779 255.409 172.477 251.78C172.174 248.05 171.166 242.808 170.36 239.985L168.747 234.844L157.557 229.098C131.751 215.892 119.25 201.376 116.428 181.517C113.605 161.053 123.182 139.985 146.468 115.589C157.961 103.593 181.751 81.5163 183.162 81.5163C183.767 81.5163 185.884 82.9276 188.102 84.6413ZM199.292 160.146C201.408 160.751 204.433 162.364 206.046 163.674L208.969 166.194L213.707 164.077C222.679 160.146 231.247 161.658 236.691 168.211C241.832 174.259 241.328 184.037 235.179 196.437C229.635 207.828 218.445 217.606 198.687 228.191C188.505 233.735 189.513 234.239 184.876 221.638C178.928 205.207 176.509 194.622 176.509 184.844C176.509 174.662 177.82 169.622 181.751 164.985C186.287 159.642 191.832 158.13 199.292 160.146Z" fill="#0F6220"/>
</svg>
